:FULLY-SPECIFIED
:FORCE-ALL-JOINTS-BE-3DOF
:DEGREES
815
root 2.00426 16.5914 22.6726 4.34255 3.19942 353.455
lfemur -36.8972 -1.45679 0.77118
ltibia 25.2515 0 0
lfoot -10.3162 9.97165 0
ltoes 16.9189 0 0
rfemur 1.59426 3.62421 21.6755
rtibia 23.9242 0 0
rfoot -21.7613 -12.7736 0
rtoes -24.4571 0 0
lowerback 0.372661 6.3302 5.2499
upperback -0.297252 8.45658 -0.416992
thorax 0.311188 4.23218 -3.25918
lowerneck -5.6201 -2.01431 2.78051
upperneck -0.139037 -2.87924 1.66315
head 0.883294 -1.40697 -0.0188362
lclavicle -2.34992e-14 7.57274e-16 0
lhumerus -53.8217 -6.66625 90.984
lradius 55.3473 0 0
lwrist 19.9821 0 0
lhand -8.51012 5.07266 0
lfingers 7.12502 0 0
lthumb 17.4169 34.2967 0
rclavicle -2.34992e-14 7.57274e-16 0
rhumerus -30.9505 45.1623 -110.237
rradius 68.363 0 0
rwrist -1.00072 0 0
rhand -10.6806 -23.9977 0
rfingers 7.12502 0 0
rthumb 15.3226 -773.312 0
816
root 2.03224 16.5881 22.8159 4.39657 1.68396 353.249
lfemur -36.6803 -1.33137 1.37084
ltibia 23.5699 0 0
lfoot -9.78862 10.9678 0
ltoes 17.3427 0 0
rfemur 2.44318 4.19578 21.7823
rtibia 22.9228 0 0
rfoot -21.6848 -12.6779 0
rtoes -24.7575 0 0
lowerback 0.302246 6.43549 5.39176
upperback -0.300709 8.59528 -0.333072
thorax 0.366408 4.3024 -3.24019
lowerneck -5.59684 -1.9011 2.88972
upperneck -0.0641297 -2.73646 1.59809
head 0.89959 -1.33588 -0.0536662
lclavicle -1.8849e-14 6.05819e-16 0
lhumerus -53.7346 -6.56375 90.8868
lradius 54.6881 0 0
lwrist 19.6765 0 0
lhand -8.24042 5.15711 0
lfingers 7.12502 0 0
lthumb 17.6766 34.3603 0
rclavicle -1.8849e-14 6.05819e-16 0
rhumerus -30.6749 45.1625 -109.884
rradius 68.0892 0 0
rwrist -1.29602 0 0
rhand -9.97891 -23.7236 0
rfingers 7.12502 0 0
rthumb 15.9991 -772.999 0
817
root 2.06022 16.5848 22.9591 4.45059 0.168503 353.042
lfemur -36.4635 -1.20595 1.9705
ltibia 21.8883 0 0
lfoot -9.26101 11.9639 0
ltoes 17.7665 0 0
rfemur 3.2921 4.76735 21.8891
rtibia 21.9213 0 0
rfoot -21.6082 -12.5822 0
rtoes -25.0578 0 0
lowerback 0.231831 6.54079 5.53362
upperback -0.304166 8.73399 -0.249152
thorax 0.421629 4.37261 -3.2212
lowerneck -5.57358 -1.78789 2.99893
upperneck 0.010778 -2.59367 1.53303
head 0.915887 -1.26478 -0.0884961
lclavicle -1.41989e-14 4.54364e-16 0
lhumerus -53.6475 -6.46124 90.7896
lradius 54.0289 0 0
lwrist 19.3709 0 0
lhand -7.97073 5.24157 0
lfingers 7.12502 0 0
lthumb 17.9363 34.4239 0
rclavicle -1.41989e-14 4.54364e-16 0
rhumerus -30.3993 45.1626 -109.531
rradius 67.8154 0 0
rwrist -1.59132 0 0
rhand -9.27724 -23.4495 0
rfingers 7.12502 0 0
rthumb 16.6756 -772.686 0
818
root 2.0882 16.5814 23.1024 4.50462 -1.34696 352.836
lfemur -36.2466 -1.08052 2.57016
ltibia 20.2067 0 0
lfoot -8.73341 12.96 0
ltoes 18.1902 0 0
rfemur 4.14103 5.33892 21.9959
rtibia 20.9199 0 0
rfoot -21.5317 -12.4865 0
rtoes -25.3582 0 0
lowerback 0.161416 6.64608 5.67549
upperback -0.307624 8.87269 -0.165232
thorax 0.476849 4.44283 -3.20221
lowerneck -5.55032 -1.67469 3.10814
upperneck 0.0856857 -2.45088 1.46798
head 0.932183 -1.19369 -0.123326
lclavicle -9.54876e-15 3.0291e-16 0
lhumerus -53.5604 -6.35874 90.6924
lradius 53.3697 0 0
lwrist 19.0654 0 0
lhand -7.70103 5.32602 0
lfingers 7.12502 0 0
lthumb 18.196 34.4874 0
rclavicle -9.54876e-15 3.0291e-16 0
rhumerus -30.1237 45.1628 -109.177
rradius 67.5417 0 0
rwrist -1.88662 0 0
rhand -8.57557 -23.1754 0
rfingers 7.12502 0 0
rthumb 17.3522 -772.373 0
819
root 2.11618 16.5781 23.2456 4.55864 -2.86242 352.63
lfemur -36.0298 -0.955099 3.16982
ltibia 18.5252 0 0
lfoot -8.2058 13.9562 0
ltoes 18.614 0 0
rfemur 4.98995 5.91049 22.1027
rtibia 19.9184 0 0
rfoot -21.4551 -12.3908 0
rtoes -25.6585 0 0
lowerback 0.091001 6.75137 5.81735
upperback -0.311081 9.0114 -0.0813124
thorax 0.53207 4.51304 -3.18322
lowerneck -5.52707 -1.56148 3.21735
upperneck 0.160593 -2.3081 1.40292
head 0.94848 -1.1226 -0.158156
lclavicle -4.89862e-15 1.51455e-16 0
lhumerus -53.4733 -6.25624 90.5952
lradius 52.7105 0 0
lwrist 18.7598 0 0
lhand -7.43133 5.41048 0
lfingers 7.12502 0 0
lthumb 18.4557 34.551 0
rclavicle -4.89862e-15 1.51455e-16 0
rhumerus -29.8481 45.1629 -108.824
rradius 67.2679 0 0
rwrist -2.18193 0 0
rhand -7.8739 -22.9013 0
rfingers 7.12502 0 0
rthumb 18.0287 -772.061 0
820
root 2.14416 16.5748 23.3889 4.61266 -4.37788 352.424
lfemur -35.8129 -0.829675 3.76948
ltibia 16.8436 0 0
lfoot -7.6782 14.9523 0
ltoes 19.0378 0 0
rfemur 5.83887 6.48206 22.2095
rtibia 18.917 0 0
rfoot -21.3786 -12.2951 0
rtoes -25.9589 0 0
lowerback 0.0205861 6.85666 5.95921
upperback -0.314538 9.1501 0.00260752
thorax 0.58729 4.58326 -3.16423
lowerneck -5.50381 -1.44827 3.32656
upperneck 0.235501 -2.16531 1.33786
head 0.964776 -1.05151 -0.192986
lclavicle -2.48481e-16 0 0
lhumerus -53.3862 -6.15374 90.498
lradius 52.0513 0 0
lwrist 18.4542 0 0
lhand -7.16163 5.49493 0
lfingers 7.12502 0 0
lthumb 18.7154 34.6146 0
rclavicle -2.48481e-16 0 0
rhumerus -29.5725 45.1631 -108.471
rradius 66.9941 0 0
rwrist -2.47723 0 0
rhand -7.17223 -22.6272 0
rfingers 7.12502 0 0
rthumb 18.7052 -771.748 0
821
root 2.21344 16.5597 23.5727 4.18546 -4.20391 352.613
lfemur -35.4832 -0.770819 3.08255
ltibia 17.6879 0 0
lfoot -7.48166 13.8956 0
ltoes 18.0462 0 0
rfemur 5.14649 5.85522 21.3776
rtibia 21.5099 0 0
rfoot -19.1928 -10.9783 0
rtoes -25.8421 0 0
lowerback -0.0365142 6.79155 5.73174
upperback -0.334543 9.06231 0.0489302
thorax 0.55565 4.5389 -2.99342
lowerneck -5.53849 -1.54217 3.31523
upperneck 0.641685 -2.30086 1.32844
head 1.10549 -1.11182 -0.204253
lclavicle 1.18798e-15 -4.35433e-16 0
lhumerus -53.4854 -6.05797 90.2706
lradius 52.1193 0 0
lwrist 18.3958 0 0
lhand -7.05333 5.44867 0
lfingers 7.12502 0 0
lthumb 18.8195 34.5576 0
rclavicle 1.18798e-15 -4.35433e-16 0
rhumerus -29.7936 44.1899 -107.027
rradius 66.4481 0 0
rwrist -2.03474 0 0
rhand -8.34501 -22.7534 0
rfingers 7.12502 0 0
rthumb 17.5737 -771.912 0
822
root 2.28272 16.5446 23.7565 3.75825 -4.02993 352.803
lfemur -35.1536 -0.711963 2.39562
ltibia 18.5321 0 0
lfoot -7.28511 12.8389 0
ltoes 17.0545 0 0
rfemur 4.45412 5.22839 20.5456
rtibia 24.1027 0 0
rfoot -17.007 -9.66149 0
rtoes -25.7253 0 0
lowerback -0.0936145 6.72645 5.50427
upperback -0.354549 8.97453 0.0952528
thorax 0.524009 4.49453 -2.8226
lowerneck -5.57318 -1.63608 3.30391
upperneck 1.04787 -2.43642 1.31901
head 1.24619 -1.17213 -0.215521
lclavicle 2.62443e-15 -8.70866e-16 0
lhumerus -53.5846 -5.96219 90.0431
lradius 52.1873 0 0
lwrist 18.3374 0 0
lhand -6.94504 5.40242 0
lfingers 7.12502 0 0
lthumb 18.9236 34.5006 0
rclavicle 2.62443e-15 -8.70866e-16 0
rhumerus -30.0147 43.2167 -105.584
rradius 65.902 0 0
rwrist -1.59224 0 0
rhand -9.5178 -22.8796 0
rfingers 7.12502 0 0
rthumb 16.4422 -772.076 0
823
root 2.352 16.5295 23.9404 3.33105 -3.85596 352.992
lfemur -34.8239 -0.653106 1.7087
ltibia 19.3764 0 0
lfoot -7.08857 11.7823 0
ltoes 16.0629 0 0
rfemur 3.76174 4.60155 19.7137
rtibia 26.6956 0 0
rfoot -14.8211 -8.34469 0
rtoes -25.6086 0 0
lowerback -0.150715 6.66134 5.2768
upperback -0.374554 8.88674 0.141575
thorax 0.492369 4.45017 -2.65179
lowerneck -5.60786 -1.72998 3.29258
upperneck 1.45405 -2.57197 1.30959
head 1.3869 -1.23244 -0.226788
lclavicle 4.06089e-15 -1.3063e-15 0
lhumerus -53.6839 -5.86642 89.8157
lradius 52.2553 0 0
lwrist 18.279 0 0
lhand -6.83674 5.35616 0
lfingers 7.12502 0 0
lthumb 19.0277 34.4436 0
rclavicle 4.06089e-15 -1.3063e-15 0
rhumerus -30.2358 42.2436 -104.14
rradius 65.356 0 0
rwrist -1.14975 0 0
rhand -10.6906 -23.0057 0
rfingers 7.12502 0 0
rthumb 15.3107 -772.241 0
824
root 2.42129 16.5144 24.1242 2.90384 -3.68198 353.181
lfemur -34.4942 -0.59425 1.02177
ltibia 20.2207 0 0
lfoot -6.89202 10.7256 0
ltoes 15.0713 0 0
rfemur 3.06936 3.97472 18.8817
rtibia 29.2885 0 0
rfoot -12.6353 -7.02788 0
rtoes -25.4918 0 0
lowerback -0.207815 6.59623 5.04933
upperback -0.39456 8.79896 0.187898
thorax 0.460729 4.4058 -2.48098
lowerneck -5.64254 -1.82388 3.28126
upperneck 1.86024 -2.70753 1.30016
head 1.52761 -1.29275 -0.238055
lclavicle 5.49734e-15 -1.74173e-15 0
lhumerus -53.7831 -5.77065 89.5883
lradius 52.3232 0 0
lwrist 18.2206 0 0
lhand -6.72844 5.3099 0
lfingers 7.12502 0 0
lthumb 19.1318 34.3866 0
rclavicle 5.49734e-15 -1.74173e-15 0
rhumerus -30.457 41.2704 -102.696
rradius 64.81 0 0
rwrist -0.707255 0 0
rhand -11.8634 -23.1319 0
rfingers 7.12502 0 0
rthumb 14.1792 -772.405 0
